<svg width="249" height="248" viewBox="0 0 249 248" fill="none" xmlns="http://www.w3.org/2000/svg">
<rect width="249" height="248" fill="#2F2A23"/>
<path d="M25.8672 139L17.8008 117.867H23.4648L28.1133 132.77L28.4062 134.254L28.6992 132.77L33.3281 117.867H38.9922L30.9648 139H25.8672ZM44.3047 109H56.1211V134.586H62.1758V139H44.3047V134.586H50.6328V113.434H44.3047V109ZM80.3984 139C80.2682 138.74 80.1576 138.44 80.0664 138.102C79.9753 137.763 79.8971 137.405 79.832 137.027C79.5326 137.353 79.1875 137.659 78.7969 137.945C78.4062 138.232 77.9766 138.479 77.5078 138.688C77.026 138.909 76.4987 139.078 75.9258 139.195C75.3529 139.326 74.7344 139.391 74.0703 139.391C72.9896 139.391 71.9935 139.234 71.082 138.922C70.1836 138.609 69.4089 138.173 68.7578 137.613C68.1068 137.053 67.599 136.389 67.2344 135.621C66.8698 134.84 66.6875 133.993 66.6875 133.082C66.6875 131.91 66.9154 130.875 67.3711 129.977C67.8268 129.065 68.5104 128.316 69.4219 127.73C70.2422 127.197 71.2513 126.793 72.4492 126.52C73.6602 126.233 75.0469 126.09 76.6094 126.09H79.6367V124.84C79.6367 124.345 79.5586 123.902 79.4023 123.512C79.2461 123.108 79.0117 122.763 78.6992 122.477C78.3737 122.177 77.9635 121.949 77.4688 121.793C76.987 121.624 76.4206 121.539 75.7695 121.539C75.1966 121.539 74.7018 121.611 74.2852 121.754C73.8685 121.884 73.5299 122.073 73.2695 122.32C73.0352 122.542 72.8594 122.809 72.7422 123.121C72.638 123.434 72.5859 123.779 72.5859 124.156H67.1562C67.1562 123.258 67.3516 122.405 67.7422 121.598C68.1458 120.79 68.7318 120.081 69.5 119.469C70.2552 118.857 71.1797 118.375 72.2734 118.023C73.3802 117.659 74.6432 117.477 76.0625 117.477C77.3385 117.477 78.5234 117.633 79.6172 117.945C80.724 118.258 81.681 118.72 82.4883 119.332C83.2956 119.944 83.9271 120.719 84.3828 121.656C84.8385 122.581 85.0664 123.655 85.0664 124.879V133.941C85.0664 135.074 85.138 136.012 85.2812 136.754C85.4245 137.496 85.6328 138.134 85.9062 138.668V139H80.3984ZM75.2227 135.191C75.7695 135.191 76.2773 135.126 76.7461 134.996C77.2148 134.866 77.638 134.697 78.0156 134.488C78.3932 134.28 78.7188 134.046 78.9922 133.785C79.2656 133.512 79.4805 133.238 79.6367 132.965V129.332H76.8633C76.0169 129.332 75.2943 129.417 74.6953 129.586C74.0964 129.742 73.6081 129.964 73.2305 130.25C72.8529 130.549 72.5729 130.908 72.3906 131.324C72.2083 131.728 72.1172 132.171 72.1172 132.652C72.1172 133.03 72.1823 133.382 72.3125 133.707C72.4557 134.02 72.6576 134.286 72.918 134.508C73.1784 134.716 73.4974 134.885 73.875 135.016C74.2656 135.133 74.7148 135.191 75.2227 135.191ZM90.6523 128.277C90.6523 126.676 90.8346 125.211 91.1992 123.883C91.5768 122.555 92.1237 121.415 92.8398 120.465C93.556 119.514 94.4219 118.779 95.4375 118.258C96.4661 117.737 97.638 117.477 98.9531 117.477C100.06 117.477 101.03 117.678 101.863 118.082C102.71 118.473 103.458 119.033 104.109 119.762V109H109.559V139H104.656L104.383 136.793C103.719 137.613 102.938 138.251 102.039 138.707C101.141 139.163 100.099 139.391 98.9141 139.391C97.625 139.391 96.4661 139.124 95.4375 138.59C94.4219 138.043 93.5625 137.294 92.8594 136.344C92.1432 135.393 91.5964 134.267 91.2188 132.965C90.8411 131.65 90.6523 130.224 90.6523 128.688V128.277ZM96.082 128.688C96.082 129.573 96.1536 130.4 96.2969 131.168C96.4531 131.923 96.7005 132.581 97.0391 133.141C97.3776 133.714 97.8138 134.163 98.3477 134.488C98.8815 134.814 99.5326 134.977 100.301 134.977C101.238 134.977 102.013 134.775 102.625 134.371C103.25 133.967 103.745 133.414 104.109 132.711V124.156C103.745 123.44 103.257 122.887 102.645 122.496C102.033 122.092 101.264 121.891 100.34 121.891C99.5716 121.891 98.9141 122.06 98.3672 122.398C97.8333 122.724 97.3971 123.173 97.0586 123.746C96.7201 124.332 96.4727 125.016 96.3164 125.797C96.1602 126.565 96.082 127.392 96.082 128.277V128.688ZM114.5 128.238C114.5 126.702 114.721 125.283 115.164 123.98C115.607 122.665 116.258 121.526 117.117 120.562C117.964 119.599 118.999 118.844 120.223 118.297C121.46 117.75 122.872 117.477 124.461 117.477C126.049 117.477 127.462 117.75 128.699 118.297C129.936 118.844 130.984 119.599 131.844 120.562C132.69 121.526 133.335 122.665 133.777 123.98C134.22 125.283 134.441 126.702 134.441 128.238V128.648C134.441 130.198 134.22 131.63 133.777 132.945C133.335 134.247 132.69 135.38 131.844 136.344C130.997 137.307 129.956 138.062 128.719 138.609C127.482 139.143 126.076 139.41 124.5 139.41C122.911 139.41 121.492 139.143 120.242 138.609C119.005 138.062 117.964 137.307 117.117 136.344C116.258 135.38 115.607 134.247 115.164 132.945C114.721 131.63 114.5 130.198 114.5 128.648V128.238ZM119.93 128.648C119.93 129.534 120.014 130.367 120.184 131.148C120.353 131.917 120.62 132.587 120.984 133.16C121.349 133.746 121.818 134.208 122.391 134.547C122.977 134.885 123.68 135.055 124.5 135.055C125.294 135.055 125.978 134.885 126.551 134.547C127.124 134.208 127.592 133.746 127.957 133.16C128.309 132.587 128.569 131.917 128.738 131.148C128.908 130.367 128.992 129.534 128.992 128.648V128.238C128.992 127.379 128.908 126.565 128.738 125.797C128.569 125.029 128.309 124.352 127.957 123.766C127.592 123.18 127.124 122.717 126.551 122.379C125.978 122.04 125.281 121.871 124.461 121.871C123.654 121.871 122.964 122.04 122.391 122.379C121.818 122.717 121.349 123.18 120.984 123.766C120.62 124.352 120.353 125.029 120.184 125.797C120.014 126.565 119.93 127.379 119.93 128.238V128.648ZM152.898 133.199C152.898 132.874 152.82 132.587 152.664 132.34C152.521 132.092 152.26 131.858 151.883 131.637C151.492 131.428 150.978 131.233 150.34 131.051C149.702 130.868 148.895 130.686 147.918 130.504C146.681 130.257 145.548 129.951 144.52 129.586C143.504 129.208 142.632 128.753 141.902 128.219C141.173 127.698 140.6 127.092 140.184 126.402C139.78 125.712 139.578 124.918 139.578 124.02C139.578 123.147 139.786 122.314 140.203 121.52C140.62 120.725 141.219 120.029 142 119.43C142.781 118.831 143.732 118.355 144.852 118.004C145.971 117.652 147.234 117.477 148.641 117.477C150.112 117.477 151.434 117.652 152.605 118.004C153.777 118.342 154.773 118.811 155.594 119.41C156.401 120.022 157.02 120.745 157.449 121.578C157.879 122.411 158.094 123.316 158.094 124.293H152.664C152.664 123.941 152.605 123.616 152.488 123.316C152.371 123.004 152.195 122.724 151.961 122.477C151.635 122.151 151.193 121.891 150.633 121.695C150.086 121.5 149.422 121.402 148.641 121.402C147.977 121.402 147.397 121.467 146.902 121.598C146.408 121.728 146.004 121.91 145.691 122.145C145.405 122.353 145.184 122.6 145.027 122.887C144.884 123.16 144.812 123.453 144.812 123.766C144.812 124.078 144.878 124.371 145.008 124.645C145.138 124.905 145.372 125.139 145.711 125.348C146.036 125.569 146.486 125.771 147.059 125.953C147.632 126.122 148.361 126.272 149.246 126.402C150.522 126.611 151.707 126.878 152.801 127.203C153.895 127.529 154.839 127.945 155.633 128.453C156.427 128.974 157.046 129.605 157.488 130.348C157.944 131.077 158.172 131.949 158.172 132.965C158.172 133.902 157.944 134.768 157.488 135.562C157.046 136.344 156.414 137.021 155.594 137.594C154.76 138.167 153.758 138.616 152.586 138.941C151.414 139.254 150.105 139.41 148.66 139.41C147.072 139.41 145.665 139.202 144.441 138.785C143.23 138.368 142.215 137.822 141.395 137.145C140.574 136.48 139.949 135.725 139.52 134.879C139.103 134.02 138.895 133.16 138.895 132.301H144.07C144.109 132.874 144.266 133.368 144.539 133.785C144.812 134.189 145.164 134.514 145.594 134.762C146.023 135.022 146.512 135.211 147.059 135.328C147.618 135.445 148.191 135.504 148.777 135.504C149.48 135.504 150.092 135.445 150.613 135.328C151.147 135.198 151.583 135.029 151.922 134.82C152.247 134.612 152.488 134.371 152.645 134.098C152.814 133.824 152.898 133.525 152.898 133.199ZM169.051 135.855C169.051 134.853 169.383 134.007 170.047 133.316C170.711 132.613 171.635 132.262 172.82 132.262C173.992 132.262 174.91 132.607 175.574 133.297C176.251 133.987 176.59 134.84 176.59 135.855C176.59 136.871 176.245 137.717 175.555 138.395C174.878 139.059 173.966 139.391 172.82 139.391C171.661 139.391 170.743 139.052 170.066 138.375C169.389 137.698 169.051 136.858 169.051 135.855ZM169.051 119.723C169.051 118.72 169.383 117.874 170.047 117.184C170.711 116.48 171.635 116.129 172.82 116.129C173.992 116.129 174.91 116.474 175.574 117.164C176.251 117.854 176.59 118.707 176.59 119.723C176.59 120.738 176.245 121.585 175.555 122.262C174.878 122.926 173.966 123.258 172.82 123.258C171.661 123.258 170.743 122.919 170.066 122.242C169.389 121.565 169.051 120.725 169.051 119.723ZM206.902 124.312C206.902 125.367 206.753 126.344 206.453 127.242C206.167 128.141 205.763 128.909 205.242 129.547C204.708 130.198 204.07 130.706 203.328 131.07C202.586 131.435 201.772 131.617 200.887 131.617C200.314 131.617 199.773 131.565 199.266 131.461C198.771 131.357 198.283 131.194 197.801 130.973C197.319 130.764 196.844 130.497 196.375 130.172C195.906 129.846 195.424 129.456 194.93 129C194.63 128.753 194.331 128.531 194.031 128.336C193.745 128.128 193.458 127.958 193.172 127.828C192.859 127.672 192.547 127.555 192.234 127.477C191.935 127.398 191.622 127.359 191.297 127.359C190.945 127.359 190.607 127.451 190.281 127.633C189.956 127.802 189.669 128.03 189.422 128.316C189.161 128.616 188.953 128.954 188.797 129.332C188.654 129.71 188.582 130.1 188.582 130.504L185.066 130.074C185.066 129.02 185.21 128.056 185.496 127.184C185.783 126.298 186.193 125.536 186.727 124.898C187.247 124.273 187.872 123.785 188.602 123.434C189.344 123.082 190.158 122.906 191.043 122.906C191.629 122.906 192.182 122.965 192.703 123.082C193.237 123.199 193.751 123.375 194.246 123.609C194.728 123.818 195.197 124.085 195.652 124.41C196.121 124.723 196.59 125.087 197.059 125.504C197.384 125.777 197.697 126.018 197.996 126.227C198.309 126.435 198.615 126.611 198.914 126.754C199.201 126.884 199.487 126.982 199.773 127.047C200.06 127.112 200.346 127.145 200.633 127.145C200.984 127.145 201.316 127.053 201.629 126.871C201.941 126.689 202.215 126.448 202.449 126.148C202.684 125.849 202.872 125.51 203.016 125.133C203.159 124.742 203.23 124.345 203.23 123.941L206.902 124.312ZM225.438 131.539C225.438 130.992 225.353 130.51 225.184 130.094C225.027 129.664 224.773 129.273 224.422 128.922C224.057 128.57 223.582 128.251 222.996 127.965C222.423 127.665 221.727 127.372 220.906 127.086C219.591 126.617 218.393 126.122 217.312 125.602C216.232 125.081 215.314 124.475 214.559 123.785C213.79 123.095 213.198 122.294 212.781 121.383C212.365 120.458 212.156 119.365 212.156 118.102C212.156 116.995 212.345 115.986 212.723 115.074C213.1 114.15 213.634 113.349 214.324 112.672C215.014 111.995 215.848 111.448 216.824 111.031C217.801 110.615 218.888 110.348 220.086 110.23V106.031H223.211V110.27C224.383 110.426 225.438 110.745 226.375 111.227C227.312 111.708 228.113 112.333 228.777 113.102C229.428 113.883 229.93 114.801 230.281 115.855C230.646 116.897 230.828 118.069 230.828 119.371H225.398C225.398 118.538 225.294 117.809 225.086 117.184C224.878 116.559 224.585 116.044 224.207 115.641C223.868 115.289 223.458 115.022 222.977 114.84C222.508 114.658 221.987 114.566 221.414 114.566C220.75 114.566 220.171 114.658 219.676 114.84C219.194 115.009 218.797 115.25 218.484 115.562C218.172 115.888 217.938 116.266 217.781 116.695C217.638 117.125 217.566 117.594 217.566 118.102C217.566 118.609 217.638 119.065 217.781 119.469C217.938 119.859 218.198 120.224 218.562 120.562C218.914 120.901 219.383 121.227 219.969 121.539C220.555 121.839 221.284 122.145 222.156 122.457C223.471 122.952 224.663 123.466 225.73 124C226.798 124.521 227.716 125.126 228.484 125.816C229.24 126.52 229.819 127.333 230.223 128.258C230.639 129.169 230.848 130.25 230.848 131.5C230.848 132.646 230.659 133.681 230.281 134.605C229.904 135.517 229.363 136.305 228.66 136.969C227.957 137.633 227.111 138.167 226.121 138.57C225.132 138.961 224.025 139.215 222.801 139.332V143.16H219.695V139.332C218.589 139.228 217.514 138.987 216.473 138.609C215.431 138.219 214.513 137.659 213.719 136.93C212.911 136.201 212.267 135.283 211.785 134.176C211.303 133.056 211.062 131.715 211.062 130.152H216.512C216.512 131.09 216.648 131.878 216.922 132.516C217.195 133.141 217.553 133.635 217.996 134C218.426 134.378 218.921 134.645 219.48 134.801C220.04 134.957 220.613 135.035 221.199 135.035C221.941 135.035 222.586 134.944 223.133 134.762C223.68 134.566 224.129 134.299 224.48 133.961C224.793 133.661 225.027 133.303 225.184 132.887C225.353 132.47 225.438 132.021 225.438 131.539Z" fill="#F2EBDF"/>
</svg>
