<svg width="100" height="100" viewBox="0 0 100 100" fill="none" xmlns="http://www.w3.org/2000/svg">
<g clip-path="url(#clip0_34_2)">
<path d="M21.3955 80L0.826172 26.1113H15.2695L27.123 64.1123L27.8701 67.8975L28.6172 64.1123L40.4209 26.1113H54.8643L34.3945 80H21.3955ZM80.2148 71.9814C80.2148 69.4248 81.0615 67.2666 82.7549 65.5068C84.4482 63.7139 86.8057 62.8174 89.8271 62.8174C92.8154 62.8174 95.1562 63.6973 96.8496 65.457C98.5762 67.2168 99.4395 69.3916 99.4395 71.9814C99.4395 74.5713 98.5596 76.7295 96.7998 78.4561C95.0732 80.1494 92.749 80.9961 89.8271 80.9961C86.8721 80.9961 84.5312 80.1328 82.8047 78.4062C81.0781 76.6797 80.2148 74.5381 80.2148 71.9814ZM80.2148 30.8428C80.2148 28.2861 81.0615 26.1279 82.7549 24.3682C84.4482 22.5752 86.8057 21.6787 89.8271 21.6787C92.8154 21.6787 95.1562 22.5586 96.8496 24.3184C98.5762 26.0781 99.4395 28.2529 99.4395 30.8428C99.4395 33.4326 98.5596 35.5908 96.7998 37.3174C95.0732 39.0107 92.749 39.8574 89.8271 39.8574C86.8721 39.8574 84.5312 38.9941 82.8047 37.2676C81.0781 35.541 80.2148 33.3994 80.2148 30.8428Z" fill="#2F2A23"/>
</g>
<defs>
<clipPath id="clip0_34_2">
<rect width="100" height="100" fill="white"/>
</clipPath>
</defs>
</svg>
